<?xml version="1.0" encoding="utf-8"?>
<!-- Generator: Circuit Diagram, cdlibrary.dll 4.0.0.0 -->
<!DOCTYPE svg PUBLIC "-//W3C//DTD SVG 1.1//EN" "http://www.w3.org/Graphics/SVG/1.1/DTD/svg11.dtd">
<svg version="1.1" width="320" height="120" xmlns="http://www.w3.org/2000/svg">
	<line x1="250" y1="60" x2="290" y2="60" style="stroke:rgb(43, 45, 66);stroke-linecap:square;stroke-width:2" />
	<line x1="180" y1="60" x2="220" y2="60" style="stroke:rgb(43, 45, 66);stroke-linecap:square;stroke-width:2" />
	<line x1="80" y1="60" x2="120" y2="60" style="stroke:rgb(43, 45, 66);stroke-linecap:square;stroke-width:2" />
	<text x="65" y="60" style="font-family:Arial;font-size:12px;text-anchor:end" dominant-baseline="middle" transform="rotate(0, 65, 60)">+3.3V</text>
	<line x1="70" y1="60" x2="80" y2="60" style="stroke:rgb(43, 45, 66);stroke-linecap:square;stroke-width:2" />
	<line x1="290" y1="60" x2="290" y2="72" style="stroke:rgb(43, 45, 66);stroke-linecap:square;stroke-width:2" />
	<path d="M 282,72 L 298,72 L 290,80 L 282,72" style="fill-opacity:0;fill:rgb(43, 45, 66);stroke:rgb(43, 45, 66);stroke-linecap:square;stroke-width:2" />
	<line x1="220" y1="60" x2="250" y2="60" style="stroke:rgb(43, 45, 66);stroke-linecap:square;stroke-width:2" />
	<path d="M 242,60 M 242,52 L 242,68 M 242,60 L 227,68 L 227,52 L 242,60" style="fill-opacity:0;fill:rgb(43, 45, 66);stroke:rgb(43, 45, 66);stroke-linecap:square;stroke-width:2" />
	<path d="M 240,60 M 238,49 L 246,41 M 247,40 L 243,42 L 245,44 L 247,40 L 243,42" style="fill-opacity:0;fill:rgb(43, 45, 66);stroke:rgb(43, 45, 66);stroke-linecap:square;stroke-width:2" />
	<path d="M 240,60 M 244,56 L 252,48 M 253,47 L 249,49 L 251,51 L 253,47 L 249,49" style="fill-opacity:0;fill:rgb(43, 45, 66);stroke:rgb(43, 45, 66);stroke-linecap:square;stroke-width:2" />
	<line x1="120" y1="60" x2="130" y2="60" style="stroke:rgb(43, 45, 66);stroke-linecap:square;stroke-width:2" />
	<line x1="170" y1="60" x2="180" y2="60" style="stroke:rgb(43, 45, 66);stroke-linecap:square;stroke-width:2" />
	<path d="M 130,60 L 132,60 L 135,53 L 141,67 L 147,53 L 153,67 L 159,53 L 165,67 L 168,60 L 170,60" style="fill-opacity:0;fill:rgb(43, 45, 66);stroke:rgb(43, 45, 66);stroke-linecap:square;stroke-width:2" />
	<text x="150" y="46" style="font-family:Arial;font-size:11px;text-anchor:middle" dominant-baseline="baseline" transform="rotate(0, 150, 46)">100 Ω</text>
</svg>